<mxfile>
  <diagram id="0" name="总体用例图">
    <mxGraphModel dx="1200" dy="580" grid="1" gridSize="10" guides="1" tooltips="1" connect="1" arrows="1" fold="1" page="1" pageScale="1" pageWidth="827" pageHeight="1169" math="0" shadow="0">
      <root>
        <!-- 定义所有节点 -->
        <mxCell id="0"/>
        <mxCell id="1" parent="0"/>
        
        <!-- 1. 系统边界 -->
        <mxCell id="system" value="铁路风险防控与安全管理系统" style="swimlane;fontStyle=1;align=center;verticalAlign=top;childLayout=stackLayout;horizontal=1;startSize=30;horizontalStack=0;resizeParent=1;resizeParentMax=0;resizeLast=0;collapsible=1;marginBottom=0;" parent="1" vertex="1">
          <mxGeometry x="200" y="100" width="600" height="400" as="geometry"/>
        </mxCell>
        
        <!-- 2. 系统功能用例 -->
        <mxCell id="uc1" value="实时风险监测" style="ellipse;whiteSpace=wrap;html=1;aspect=fixed;" parent="system" vertex="1">
          <mxGeometry x="250" y="50" width="120" height="60" as="geometry"/>
        </mxCell>
        <mxCell id="uc2" value="智能巡查管理" style="ellipse;whiteSpace=wrap;html=1;aspect=fixed;" parent="system" vertex="1">
          <mxGeometry x="100" y="150" width="120" height="60" as="geometry"/>
        </mxCell>
        <mxCell id="uc3" value="应急协同响应" style="ellipse;whiteSpace=wrap;html=1;aspect=fixed;" parent="system" vertex="1">
          <mxGeometry x="400" y="150" width="120" height="60" as="geometry"/>
        </mxCell>
        <mxCell id="uc4" value="数据驱动决策" style="ellipse;whiteSpace=wrap;html=1;aspect=fixed;" parent="system" vertex="1">
          <mxGeometry x="100" y="250" width="120" height="60" as="geometry"/>
        </mxCell>
        <mxCell id="uc5" value="AI知识问答" style="ellipse;whiteSpace=wrap;html=1;aspect=fixed;" parent="system" vertex="1">
          <mxGeometry x="400" y="250" width="120" height="60" as="geometry"/>
        </mxCell>
        
        <!-- 3. 角色定义 -->
        <mxCell id="actor1" value="SRBA铁路管理局" style="actor;whiteSpace=wrap;html=1;" parent="1" vertex="1">
          <mxGeometry x="50" y="200" width="40" height="60" as="geometry"/>
        </mxCell>
        <mxCell id="actor2" value="铁路安全管理员" style="actor;whiteSpace=wrap;html=1;" parent="1" vertex="1">
          <mxGeometry x="50" y="300" width="40" height="60" as="geometry"/>
        </mxCell>
        <mxCell id="actor3" value="网格巡查人员" style="actor;whiteSpace=wrap;html=1;" parent="1" vertex="1">
          <mxGeometry x="50" y="400" width="40" height="60" as="geometry"/>
        </mxCell>
        
        <!-- 4. 角色与用例关系 -->
        <!-- SRBA铁路管理局 -->
        <mxCell id="rel1" source="actor1" target="uc1" style="edgeStyle=none;endArrow=open;endSize=8;html=1;exitX=1;exitY=0.5;exitDx=0;exitDy=0;entryX=0;entryY=0.5;entryDx=0;entryDy=0;" parent="1" edge="1"/>
        <mxCell id="rel2" source="actor1" target="uc3" style="edgeStyle=none;endArrow=open;endSize=8;html=1;exitX=1;exitY=0.5;exitDx=0;exitDy=0;entryX=0;entryY=0.5;entryDx=0;entryDy=0;" parent="1" edge="1"/>
        <mxCell id="rel3" source="actor1" target="uc4" style="edgeStyle=none;endArrow=open;endSize=8;html=1;exitX=1;exitY=0.5;exitDx=0;exitDy=0;entryX=0;entryY=0.5;entryDx=0;entryDy=0;" parent="1" edge="1"/>
        
        <!-- 铁路安全管理员 -->
        <mxCell id="rel4" source="actor2" target="uc1" style="edgeStyle=none;endArrow=open;endSize=8;html=1;exitX=1;exitY=0.5;exitDx=0;exitDy=0;entryX=0;entryY=0.5;entryDx=0;entryDy=0;" parent="1" edge="1"/>
        <mxCell id="rel5" source="actor2" target="uc2" style="edgeStyle=none;endArrow=open;endSize=8;html=1;exitX=1;exitY=0.5;exitDx=0;exitDy=0;entryX=0;entryY=0.5;entryDx=0;entryDy=0;" parent="1" edge="1"/>
        <mxCell id="rel6" source="actor2" target="uc3" style="edgeStyle=none;endArrow=open;endSize=8;html=1;exitX=1;exitY=0.5;exitDx=0;exitDy=0;entryX=0;entryY=0.5;entryDx=0;entryDy=0;" parent="1" edge="1"/>
        
        <!-- 网格巡查人员 -->
        <mxCell id="rel7" source="actor3" target="uc2" style="edgeStyle=none;endArrow=open;endSize=8;html=1;exitX=1;exitY=0.5;exitDx=0;exitDy=0;entryX=0;entryY=0.5;entryDx=0;entryDy=0;" parent="1" edge="1"/>
        <mxCell id="rel8" source="actor3" target="uc5" style="edgeStyle=none;endArrow=open;endSize=8;html=1;exitX=1;exitY=0.5;exitDx=0;exitDy=0;entryX=0;entryY=0.5;entryDx=0;entryDy=0;" parent="1" edge="1"/>
      </root>
    </mxGraphModel>
  </diagram>
</mxfile>
